<svg xmlns="http://www.w3.org/2000/svg" width="512" height="512" viewBox="0 0 512 512" version="1.1">
	<path d="M 161.500 2.364 C 149.960 5.227, 143.011 8.992, 135.388 16.510 C 127.077 24.708, 125.555 27.928, 122.567 43.627 C 122.015 46.527, 125.267 60.694, 127.473 65 C 128.459 66.925, 131.494 71.350, 134.216 74.834 C 136.938 78.318, 139.016 81.270, 138.833 81.396 C 124.228 91.403, 118.854 97.947, 115.900 109.320 C 113.812 117.357, 113.527 122.626, 114.975 126.435 L 115.950 129 106.106 129 C 87.960 129, 65.819 134.311, 55.191 141.214 C 48.154 145.785, 42.112 152.212, 37.136 160.423 C 33.529 166.374, 29.053 181.928, 29.020 188.622 C 28.987 195.469, 33.622 211.732, 37.214 217.370 C 46.926 232.615, 62.905 243.674, 80.679 247.452 L 83.857 248.128 82.045 251.314 C 81.048 253.066, 79.502 257.650, 78.610 261.500 C 77.078 268.115, 77.092 268.893, 78.864 275.630 C 81.325 284.989, 85.576 290.948, 94.022 296.880 C 101.335 302.015, 105.294 303.656, 124.500 309.512 C 144.734 315.683, 168.932 328.246, 186.845 341.882 C 191.192 345.191, 195.889 348.185, 197.283 348.535 C 199.444 349.077, 200.552 351.033, 204.815 361.835 C 213.084 382.790, 213.312 383.971, 213.299 405.773 C 213.292 416.373, 213.078 425.255, 212.823 425.510 C 212.568 425.765, 208.076 427.060, 202.841 428.388 C 175.314 435.371, 160.983 452.193, 164.953 472.864 C 168.101 489.257, 181.652 499.659, 208 505.907 C 243.490 514.322, 278.760 513.474, 313.893 503.358 C 331.337 498.336, 343.306 487.461, 346.555 473.682 C 348.212 466.653, 348.209 465.975, 346.505 459.021 C 342.794 443.876, 330.181 433.915, 307.250 428.016 L 303 426.923 303.008 421.711 C 303.018 414.364, 304.737 404.442, 307.109 398.036 C 310.383 389.194, 318.908 373.278, 326.411 362 C 335.866 347.787, 354.405 329.242, 365.278 323.121 C 376.922 316.566, 388.455 312.915, 399.371 312.329 C 410.541 311.729, 428.265 307.941, 435.590 304.588 C 458.457 294.119, 470.835 270.606, 465.070 248.586 C 462.814 239.968, 459.615 233.793, 454.437 228.062 L 451.105 224.374 452.627 219.957 C 458.168 203.874, 452.650 185.825, 439.900 178.322 C 435.012 175.446, 432.495 174.551, 423.741 172.579 L 420.981 171.957 422.865 168.229 C 429.039 156.011, 434.562 131.417, 433.680 120.073 C 432.479 104.631, 426.684 90.297, 417.559 80.197 C 413.423 75.619, 402.127 67.814, 396.454 65.614 C 389.362 62.864, 376.284 60, 370.833 60.003 C 363.360 60.008, 349.287 63.994, 342.370 68.067 C 334.278 72.830, 318.597 88.714, 311.253 99.585 C 304.264 109.932, 295.675 125.862, 290.935 137.270 C 289.159 141.543, 287.546 144.879, 287.350 144.683 C 287.154 144.487, 285.216 137.166, 283.044 128.414 C 273.963 91.829, 262.266 66.133, 243.062 40.583 C 231.025 24.567, 215.966 10.969, 204.797 6.028 C 198.056 3.046, 183.669 -0.008, 176.711 0.066 C 173.295 0.102, 166.450 1.137, 161.500 2.364 M 171.500 24.606 C 159.631 27.496, 153.019 31.404, 149.319 37.719 C 147.209 41.319, 146.840 42.984, 147.237 47.118 C 148.216 57.303, 157.834 66.292, 178.912 76.720 C 186.342 80.396, 194.909 85.507, 198.120 88.180 C 212.142 99.849, 224.718 120.288, 235.077 148.246 C 238.096 156.394, 247.037 188.003, 246.948 190.211 C 246.919 190.920, 245.335 187.225, 243.427 182 C 230.320 146.100, 206.063 112.556, 186.106 102.732 C 179.957 99.704, 178.871 99.500, 168.920 99.500 C 158.754 99.500, 158.004 99.650, 151.441 103 C 134.649 111.571, 134.101 125.689, 150.047 138.959 C 153.415 141.763, 161.898 146.849, 169.530 150.643 C 176.965 154.338, 185.609 159.425, 188.739 161.946 C 208.250 177.664, 223.820 208.018, 235.961 254 C 239.741 268.318, 239.729 269.772, 235.916 259.500 C 228.484 239.480, 215.862 217.241, 202.996 201.496 C 183.104 177.151, 153.617 159.591, 125 155.047 C 108.607 152.444, 83.830 154.388, 73 159.127 C 63.752 163.173, 55.017 175.033, 53.415 185.720 C 52.183 193.935, 56.384 204.479, 63.874 211.969 C 72.090 220.186, 83.928 224.783, 102.616 227.014 C 129.980 230.281, 151.649 241.666, 173.771 264.400 C 190.537 281.629, 202.692 299.689, 215.567 326.500 C 224.212 344.501, 233.565 368.559, 235.734 378.370 C 238.008 388.658, 237.963 421.203, 235.656 434 C 233.228 447.470, 233.756 446.635, 227.227 447.327 C 219.292 448.169, 206.759 451.507, 200.090 454.554 C 180.145 463.667, 185.557 475.999, 212.518 482.875 C 238.337 489.459, 273.492 489.503, 299.063 482.982 C 313.893 479.200, 324 472.706, 324 466.960 C 324 459.162, 310.349 451.697, 289.268 447.966 C 281.262 446.549, 281.628 446.984, 280.045 437 C 276.920 417.286, 281.296 393.969, 292.055 373 C 313.901 330.425, 345.267 300.678, 377.500 291.966 C 386.851 289.438, 388.972 289.096, 399.500 288.413 C 421.436 286.991, 434.465 280.735, 440.433 268.759 C 443.635 262.333, 443.696 257.030, 440.642 250.500 C 434.751 237.906, 422.317 232.164, 399 231.271 C 391.248 230.973, 382.487 231.224, 378.423 231.859 C 361.947 234.433, 344.967 240.988, 331 250.168 C 321.878 256.163, 306.313 271.539, 299.096 281.686 C 295.743 286.399, 293 289.978, 293 289.639 C 293 286.335, 298.244 271.510, 302.217 263.581 C 312.662 242.739, 323.917 227.094, 338.622 212.977 C 348.668 203.333, 356.717 197.729, 368.902 191.896 C 383.430 184.941, 395.997 170.323, 403.607 151.527 C 407.119 142.852, 410 130.488, 410 124.091 C 410 109.337, 402.161 95.663, 390.241 89.622 C 372.148 80.454, 359.191 82.779, 343.964 97.927 C 328.769 113.043, 314.076 140.623, 301.037 178.500 C 293.848 199.384, 286.117 212, 280.508 212 C 275.143 212, 270.339 201.682, 268.870 187.004 C 265.620 154.523, 259.262 126.284, 249.890 102.696 C 235.262 65.882, 210.929 34.355, 191.544 27.102 C 186.067 25.053, 175.215 23.702, 171.500 24.606 M 403 195.629 C 393.358 197.447, 381.754 202.464, 371.500 209.247 C 364.369 213.964, 349.002 226.213, 349.001 227.180 C 349 227.554, 351.750 226.742, 355.112 225.377 C 371.195 218.841, 388.927 215.863, 409.500 216.242 C 421.170 216.457, 424.021 216.215, 426.629 214.787 C 430.084 212.895, 431 211.256, 431 206.965 C 431 202.204, 429.006 199.223, 424.614 197.415 C 420.570 195.751, 407.906 194.704, 403 195.629 M 105.400 260.400 C 102.660 263.140, 102 264.581, 102 267.823 C 102 274.994, 109.986 280.435, 127.909 285.475 C 152.864 292.491, 177.932 304.894, 197.433 319.874 C 201.796 323.226, 205.539 325.794, 205.751 325.583 C 205.962 325.371, 203.784 321.891, 200.909 317.849 C 182.831 292.430, 160.223 271.746, 141.417 263.417 C 133.107 259.737, 121.729 257, 114.740 257 C 109.318 257, 108.503 257.297, 105.400 260.400 M 225.230 454.550 C 210.414 458.539, 206.777 465.336, 216.767 470.367 C 224.437 474.230, 235.193 476.234, 251.065 476.757 C 267.132 477.286, 279.380 476.053, 289.696 472.867 C 296.085 470.893, 302 466.620, 302 463.978 C 302 461.698, 296.207 457.430, 290.798 455.725 C 283.699 453.488, 283.685 453.491, 285.474 456.950 C 287.865 461.573, 287.382 462.943, 282.621 465.049 C 269.753 470.742, 236.340 469.453, 230.536 463.040 C 229.146 461.504, 229.136 460.866, 230.444 457.158 C 231.251 454.871, 231.594 453.030, 231.206 453.066 C 230.818 453.102, 228.129 453.770, 225.230 454.550" stroke="none" fill="black" fill-rule="evenodd"/>
</svg>